<?xml version="1.0" encoding="iso-8859-1"?>
<!-- Uploaded to: SVG Repo, www.svgrepo.com, Generator: SVG Repo Mixer Tools -->
<svg height="800px" width="800px" version="1.1" id="Layer_1" xmlns="http://www.w3.org/2000/svg" xmlns:xlink="http://www.w3.org/1999/xlink" 
	 viewBox="0 0 512.001 512.001" xml:space="preserve">
<path style="fill:#9A1F2A;" d="M427.055,251.624v11.117c0,12.076-9.796,21.864-21.88,21.864h-5.442l-45.069,218.643H161.355
	L116.273,284.53c-11.383-0.771-20.385-10.218-20.385-21.788v-11.117H427.055z"/>
<path style="fill:#7F1521;" d="M372.739,415.556l-18.075,87.692H161.355L116.273,284.53c-7.532-0.51-14.003-4.832-17.532-11.042
	h94.602C221.811,353.836,290.966,411.559,372.739,415.556z"/>
<path style="fill:#663310;" d="M431.043,208.534c0,10.068-1.387,19.819-3.989,29.075v25.132c0,12.076-9.796,21.864-21.88,21.864
	h-72.592v38.262c0,9.056-7.347,16.398-16.41,16.398s-16.41-7.342-16.41-16.398v-38.262H117.767c-12.085,0-21.88-9.789-21.88-21.864
	v-25.132c-2.602-9.254-3.989-19.005-3.989-29.075c0-50.758,35.275-93.404,83.012-105.475c18.447-25.371,47.676-42.612,81.091-45.241
	v-0.333c0.671-0.012,1.339-0.03,2.013-0.03c1.156,0,2.309,0.018,3.457,0.053c1.148-0.035,2.301-0.053,3.457-0.053
	c0.674,0,1.342,0.018,2.013,0.03v0.333c33.416,2.629,62.645,19.87,81.092,45.241C395.768,115.13,431.043,157.776,431.043,208.534z"
	/>
<path style="fill:#391B10;" d="M431.043,208.534c0,10.068-1.387,19.819-3.989,29.075v25.132c0,12.076-9.796,21.864-21.88,21.864
	h-72.592v38.262c0,9.056-7.347,16.398-16.41,16.398s-16.41-7.342-16.41-16.398v-38.262H117.767c-12.085,0-21.88-9.789-21.88-21.864
	v-25.132c-0.105-0.375-0.197-0.757-0.298-1.134c14.706,2.883,29.936,4.401,45.54,4.401c95.659,0,177.315-56.934,209.549-137.09
	C397.061,116.744,431.043,158.721,431.043,208.534z"/>
<path style="fill:#CF8F3D;" d="M147.443,87.896c36.724,0,66.489,29.305,66.489,65.455s-29.766,65.453-66.489,65.453
	c-36.721,0-66.486-29.304-66.486-65.453C80.958,117.201,110.723,87.896,147.443,87.896L147.443,87.896z"/>
<path style="fill:#FFEE88;" d="M168.479,143.608c0,18.113-14.695,32.796-32.821,32.796c-18.127,0-32.821-14.684-32.821-32.796
	s14.694-32.796,32.821-32.796S168.479,125.496,168.479,143.608z"/>
<path d="M353.223,95.385c-20.094-26.155-50.125-42.805-83.153-46.076c-0.927-0.354-1.929-0.557-2.977-0.575l-0.511-0.01
	c-1.704-0.035-3.413-0.02-5.112,0.027c-1.698-0.047-3.408-0.062-5.112-0.027l-0.511,0.01c-1.048,0.019-2.05,0.221-2.977,0.575
	c-28.703,2.843-55.135,15.797-74.755,36.305c-9.375-4.145-19.75-6.471-30.672-6.471c-5.685,0-11.217,0.645-16.544,1.83
	L109.074,6.296c-1.355-4.635-6.214-7.298-10.855-5.943c-4.64,1.354-7.304,6.211-5.948,10.847l22.075,75.529
	c-24.935,12.099-42.14,37.411-42.14,66.62c0,14.736,4.396,28.471,11.936,40.03c-0.652,4.974-0.996,10.032-0.996,15.154
	c0,10.266,1.342,20.438,3.989,30.257v12.833v11.117c0,0.777,0.038,1.544,0.096,2.305c0.01,0.135,0.019,0.269,0.031,0.403
	c0.067,0.761,0.161,1.514,0.282,2.259c0.009,0.056,0.021,0.111,0.03,0.166c1.951,11.498,10.333,20.834,21.309,24.166l43.9,212.976
	c0.838,4.066,4.419,6.985,8.572,6.985h193.307c4.153,0,7.734-2.918,8.572-6.985l43.641-211.704c0.324-0.017,0.645-0.049,0.967-0.077
	c0.163-0.014,0.328-0.022,0.491-0.039c0.427-0.044,0.85-0.101,1.271-0.162c0.078-0.011,0.158-0.019,0.235-0.031
	c0.5-0.077,0.996-0.165,1.487-0.266c0.115-0.023,0.226-0.054,0.341-0.079c0.373-0.081,0.746-0.163,1.115-0.258
	c0.176-0.045,0.349-0.098,0.524-0.147c0.303-0.083,0.607-0.165,0.906-0.258c0.193-0.06,0.383-0.128,0.574-0.191
	c0.276-0.092,0.552-0.181,0.825-0.28c0.202-0.073,0.4-0.154,0.601-0.232c0.256-0.1,0.514-0.197,0.767-0.303
	c0.206-0.086,0.408-0.179,0.612-0.27c0.243-0.108,0.486-0.214,0.724-0.328c0.203-0.097,0.404-0.201,0.604-0.302
	c0.234-0.118,0.468-0.235,0.699-0.359c0.199-0.106,0.394-0.219,0.59-0.33c0.226-0.128,0.453-0.255,0.676-0.389
	c0.196-0.117,0.388-0.241,0.581-0.362c0.216-0.136,0.431-0.271,0.643-0.412c0.194-0.129,0.383-0.263,0.573-0.395
	c0.206-0.144,0.411-0.288,0.614-0.436c0.187-0.138,0.372-0.28,0.556-0.422c0.198-0.153,0.396-0.306,0.59-0.464
	c0.181-0.147,0.359-0.296,0.536-0.447c0.19-0.162,0.38-0.324,0.566-0.49c0.174-0.155,0.345-0.313,0.515-0.473
	c0.183-0.17,0.363-0.341,0.542-0.515c0.166-0.163,0.33-0.329,0.493-0.496c0.174-0.178,0.346-0.358,0.515-0.539
	c0.16-0.171,0.316-0.345,0.472-0.519c0.165-0.186,0.327-0.373,0.488-0.562c0.151-0.179,0.301-0.36,0.449-0.543
	c0.155-0.193,0.309-0.387,0.46-0.584c0.143-0.186,0.284-0.373,0.422-0.562c0.148-0.201,0.292-0.406,0.434-0.61
	c0.133-0.191,0.265-0.383,0.394-0.578c0.139-0.209,0.273-0.421,0.408-0.635c0.124-0.197,0.246-0.394,0.365-0.593
	c0.13-0.218,0.255-0.438,0.38-0.659c0.114-0.202,0.228-0.405,0.337-0.609c0.119-0.224,0.234-0.451,0.348-0.677
	c0.105-0.208,0.209-0.416,0.31-0.627c0.109-0.231,0.212-0.464,0.316-0.697c0.094-0.213,0.19-0.426,0.28-0.641
	c0.1-0.237,0.191-0.478,0.284-0.719c0.083-0.217,0.17-0.432,0.248-0.651c0.089-0.246,0.17-0.496,0.253-0.745
	c0.072-0.218,0.147-0.435,0.214-0.655c0.079-0.256,0.149-0.516,0.221-0.776c0.06-0.218,0.124-0.434,0.179-0.653
	c0.068-0.268,0.127-0.539,0.187-0.81c0.048-0.216,0.101-0.43,0.144-0.648c0.056-0.279,0.103-0.562,0.151-0.845
	c0.037-0.213,0.079-0.424,0.111-0.64c0.045-0.296,0.078-0.595,0.114-0.894c0.024-0.203,0.055-0.406,0.076-0.612
	c0.033-0.331,0.054-0.667,0.077-1.002c0.012-0.175,0.03-0.349,0.038-0.525c0.025-0.512,0.039-1.027,0.039-1.546v-11.118v-12.833
	c2.648-9.819,3.99-19.991,3.99-30.257C439.795,155.82,404.355,109.733,353.223,95.385z M256.688,66.543
	c0.624-0.048,1.227-0.162,1.805-0.334c0.907,0.004,1.811,0.02,2.713,0.047c0.177,0.005,0.352,0.005,0.53,0
	c0.901-0.027,1.805-0.044,2.713-0.047c0.578,0.172,1.182,0.286,1.805,0.334c29.934,2.355,57.161,17.541,74.698,41.663
	c1.205,1.655,2.948,2.837,4.934,3.338c44.986,11.376,76.405,51.26,76.405,96.99c0,9.078-1.232,18.063-3.663,26.706
	c-0.217,0.771-0.327,1.569-0.327,2.37v25.132c0,7.23-5.889,13.112-13.128,13.112h-72.591c-4.833,0-8.752,3.919-8.752,8.752v38.262
	c0,4.216-3.436,7.646-7.658,7.646c-4.222,0-7.658-3.43-7.658-7.646v-38.262c0-4.833-3.919-8.752-8.752-8.752H117.767
	c-7.239,0-13.128-5.881-13.128-13.112V237.61c0-0.801-0.11-1.598-0.327-2.37c-2.172-7.722-3.379-15.718-3.614-23.808
	c12.848,10.08,29.09,16.124,46.745,16.124c41.488,0,75.241-33.289,75.241-74.206c0-23.749-11.384-44.912-29.037-58.504
	C210.553,78.538,232.745,68.426,256.688,66.543z M147.443,96.648c31.836,0,57.737,25.436,57.737,56.703
	c0,31.266-25.901,56.702-57.737,56.702c-31.834-0.001-57.733-25.437-57.733-56.703S115.61,96.648,147.443,96.648z M347.53,494.496
	H168.488l-41.461-201.138h163.982v29.51c0,13.868,11.287,25.15,25.162,25.15c13.875,0,25.162-11.283,25.162-25.15v-29.51h47.66
	L347.53,494.496z"/>
</svg>