<svg xmlns="http://www.w3.org/2000/svg" xmlns:xlink="http://www.w3.org/1999/xlink" width="433" zoomAndPan="magnify" viewBox="0 0 324.75 323.999988" height="432" preserveAspectRatio="xMidYMid meet" version="1.0"><defs><clipPath id="6a3264e52a"><path d="M 0.464844 0.125 L 321 0.125 L 321 321 L 0.464844 321 Z M 0.464844 0.125 " clip-rule="nonzero"/></clipPath><clipPath id="62a1190033"><path d="M 0.464844 0.125 L 321 0.125 L 321 321 L 0.464844 321 Z M 0.464844 0.125 " clip-rule="nonzero"/></clipPath></defs><path fill="#ba9df2" d="M 301.6875 100.515625 C 299.765625 95.980469 297.625 91.542969 295.277344 87.210938 C 292.925781 82.878906 290.371094 78.667969 287.617188 74.582031 C 284.859375 70.496094 281.917969 66.550781 278.78125 62.746094 C 275.644531 58.941406 272.335938 55.296875 268.851562 51.8125 C 265.367188 48.328125 261.722656 45.019531 257.917969 41.882812 C 254.113281 38.75 250.167969 35.804688 246.082031 33.046875 C 241.996094 30.292969 237.785156 27.738281 233.453125 25.386719 C 229.121094 23.039062 224.683594 20.902344 220.148438 18.976562 C 201.253906 10.984375 181.1875 6.933594 160.5 6.933594 C 139.816406 6.933594 119.75 10.988281 100.855469 18.976562 C 96.316406 20.902344 91.882812 23.039062 87.550781 25.386719 C 83.214844 27.738281 79.007812 30.292969 74.921875 33.046875 C 70.832031 35.804688 66.886719 38.75 63.085938 41.882812 C 59.28125 45.019531 55.636719 48.328125 52.152344 51.8125 C 48.664062 55.296875 45.355469 58.941406 42.21875 62.746094 C 39.085938 66.550781 36.140625 70.496094 33.386719 74.582031 C 30.628906 78.667969 28.078125 82.878906 25.726562 87.210938 C 23.375 91.542969 21.238281 95.980469 19.3125 100.515625 C 11.324219 119.410156 7.269531 139.476562 7.269531 160.164062 C 7.269531 180.847656 11.324219 200.914062 19.3125 219.808594 C 21.238281 224.347656 23.375 228.78125 25.726562 233.117188 C 28.078125 237.449219 30.628906 241.65625 33.386719 245.746094 C 36.140625 249.832031 39.085938 253.777344 42.21875 257.582031 C 45.355469 261.382812 48.664062 265.027344 52.152344 268.515625 C 55.636719 272 59.28125 275.308594 63.085938 278.445312 C 66.886719 281.578125 70.832031 284.523438 74.921875 287.28125 C 79.007812 290.035156 83.214844 292.589844 87.550781 294.9375 C 91.882812 297.289062 96.316406 299.425781 100.855469 301.351562 C 119.75 309.34375 139.816406 313.394531 160.5 313.394531 C 181.1875 313.394531 201.253906 309.339844 220.148438 301.351562 C 224.683594 299.425781 229.121094 297.289062 233.453125 294.9375 C 237.785156 292.585938 241.996094 290.035156 246.082031 287.277344 C 250.167969 284.523438 254.113281 281.578125 257.917969 278.441406 C 261.722656 275.308594 265.367188 271.996094 268.851562 268.511719 C 272.335938 265.023438 275.648438 261.378906 278.78125 257.578125 C 281.917969 253.773438 284.863281 249.828125 287.617188 245.738281 C 290.371094 241.652344 292.925781 237.441406 295.277344 233.109375 C 297.625 228.777344 299.765625 224.339844 301.6875 219.804688 C 309.679688 200.910156 313.730469 180.839844 313.730469 160.15625 C 313.730469 139.472656 309.679688 119.410156 301.6875 100.515625 Z M 160.5 301.363281 C 82.648438 301.363281 19.300781 238.019531 19.300781 160.160156 C 19.300781 82.300781 82.648438 18.960938 160.5 18.960938 C 238.355469 18.960938 301.703125 82.300781 301.703125 160.160156 C 301.703125 238.019531 238.355469 301.363281 160.5 301.363281 Z M 160.5 301.363281 " fill-opacity="1" fill-rule="nonzero"/><g clip-path="url(#6a3264e52a)"><path fill="#8c5bea" d="M 240.46875 21.65625 C 230.652344 15.957031 220.34375 11.367188 209.539062 7.882812 C 198.738281 4.394531 187.691406 2.09375 176.394531 0.976562 C 167.878906 0.125 160.5 6.851562 160.5 15.410156 L 160.5 15.542969 C 160.503906 16.4375 160.585938 17.324219 160.75 18.203125 C 160.917969 19.082031 161.160156 19.9375 161.484375 20.769531 C 161.808594 21.605469 162.207031 22.402344 162.675781 23.160156 C 163.148438 23.921875 163.683594 24.632812 164.285156 25.292969 C 164.886719 25.957031 165.542969 26.554688 166.257812 27.097656 C 166.96875 27.636719 167.726562 28.105469 168.527344 28.507812 C 169.324219 28.90625 170.15625 29.230469 171.015625 29.476562 C 171.875 29.726562 172.75 29.890625 173.640625 29.976562 C 186.726562 31.269531 199.320312 34.484375 211.429688 39.613281 C 213.523438 40.496094 215.59375 41.433594 217.640625 42.425781 C 219.683594 43.414062 221.703125 44.460938 223.691406 45.554688 C 225.683594 46.652344 227.644531 47.796875 229.578125 48.996094 C 231.507812 50.195312 233.40625 51.441406 235.273438 52.738281 C 237.140625 54.035156 238.96875 55.378906 240.765625 56.773438 C 242.5625 58.164062 244.320312 59.601562 246.042969 61.085938 C 247.765625 62.570312 249.445312 64.097656 251.089844 65.671875 C 252.730469 67.242188 254.332031 68.855469 255.886719 70.507812 C 257.445312 72.164062 258.960938 73.859375 260.429688 75.59375 C 261.898438 77.324219 263.324219 79.097656 264.699219 80.902344 C 266.078125 82.710938 267.40625 84.554688 268.6875 86.429688 C 269.96875 88.308594 271.203125 90.214844 272.382812 92.15625 C 273.566406 94.097656 274.699219 96.070312 275.777344 98.070312 C 276.855469 100.070312 277.882812 102.097656 278.859375 104.148438 C 279.832031 106.203125 280.75 108.28125 281.617188 110.382812 C 282.484375 112.484375 283.292969 114.605469 284.050781 116.75 C 284.804688 118.890625 285.503906 121.054688 286.148438 123.234375 C 286.789062 125.414062 287.375 127.609375 287.902344 129.820312 C 288.433594 132.03125 288.902344 134.253906 289.316406 136.488281 C 289.730469 138.722656 290.082031 140.964844 290.378906 143.21875 C 290.675781 145.472656 290.914062 147.730469 291.089844 149.996094 C 291.269531 152.261719 291.386719 154.53125 291.449219 156.804688 C 291.507812 159.078125 291.511719 161.347656 291.453125 163.621094 C 291.394531 165.890625 291.277344 168.160156 291.101562 170.425781 C 290.925781 172.691406 290.6875 174.953125 290.394531 177.207031 C 290.101562 179.460938 289.75 181.703125 289.339844 183.941406 C 288.925781 186.175781 288.457031 188.398438 287.933594 190.609375 C 287.40625 192.820312 286.820312 195.015625 286.179688 197.195312 C 285.539062 199.375 284.84375 201.539062 284.089844 203.683594 C 283.335938 205.828125 282.527344 207.949219 281.664062 210.050781 C 280.800781 212.15625 279.882812 214.234375 278.910156 216.285156 C 277.9375 218.339844 276.914062 220.367188 275.835938 222.371094 C 274.757812 224.371094 273.628906 226.34375 272.449219 228.285156 C 271.265625 230.226562 270.039062 232.136719 268.757812 234.015625 C 267.476562 235.894531 266.148438 237.738281 264.773438 239.546875 C 263.398438 241.355469 261.976562 243.125 260.507812 244.863281 C 259.039062 246.597656 257.527344 248.292969 255.972656 249.949219 C 254.414062 251.605469 252.816406 253.21875 251.175781 254.792969 C 249.535156 256.363281 247.855469 257.894531 246.136719 259.378906 C 244.414062 260.863281 242.65625 262.304688 240.863281 263.699219 C 239.066406 265.09375 237.238281 266.4375 235.371094 267.738281 C 233.507812 269.035156 231.609375 270.285156 229.679688 271.484375 C 227.75 272.683594 225.789062 273.835938 223.800781 274.933594 C 221.808594 276.03125 219.792969 277.074219 217.746094 278.066406 C 215.703125 279.0625 213.632812 280 211.542969 280.886719 C 209.449219 281.769531 207.332031 282.601562 205.195312 283.375 C 203.058594 284.148438 200.90625 284.867188 198.730469 285.53125 C 196.558594 286.195312 194.367188 286.800781 192.160156 287.347656 C 189.957031 287.898438 187.738281 288.386719 185.507812 288.820312 C 183.277344 289.253906 181.035156 289.628906 178.785156 289.945312 C 176.535156 290.261719 174.277344 290.519531 172.011719 290.71875 C 169.75 290.917969 167.480469 291.058594 165.210938 291.140625 C 162.9375 291.222656 160.667969 291.242188 158.394531 291.207031 C 156.121094 291.167969 153.851562 291.070312 151.585938 290.917969 C 149.316406 290.761719 147.054688 290.546875 144.800781 290.273438 C 142.542969 290 140.296875 289.667969 138.058594 289.277344 C 135.816406 288.886719 133.589844 288.4375 131.375 287.933594 C 129.160156 287.425781 126.957031 286.863281 124.773438 286.242188 C 122.585938 285.621094 120.417969 284.945312 118.265625 284.210938 C 116.113281 283.476562 113.984375 282.6875 111.875 281.84375 C 109.765625 280.996094 107.679688 280.097656 105.617188 279.144531 C 103.550781 278.191406 101.515625 277.1875 99.503906 276.125 C 97.492188 275.066406 95.511719 273.957031 93.558594 272.792969 C 91.605469 271.632812 89.683594 270.417969 87.796875 269.15625 C 85.90625 267.894531 84.050781 266.582031 82.230469 265.222656 C 80.40625 263.863281 78.621094 262.457031 76.875 261.007812 C 75.125 259.554688 73.417969 258.058594 71.746094 256.515625 C 70.074219 254.976562 68.445312 253.390625 66.859375 251.765625 C 65.269531 250.140625 63.726562 248.472656 62.226562 246.765625 C 60.722656 245.058594 59.269531 243.316406 57.859375 241.535156 C 56.449219 239.75 55.085938 237.933594 53.769531 236.082031 C 52.453125 234.226562 51.1875 232.339844 49.96875 230.421875 C 48.75 228.503906 47.585938 226.554688 46.46875 224.574219 C 45.351562 222.59375 44.289062 220.585938 43.277344 218.550781 C 42.265625 216.515625 41.308594 214.457031 40.402344 212.371094 C 39.5 210.285156 38.652344 208.179688 37.855469 206.050781 C 37.0625 203.921875 36.324219 201.773438 35.640625 199.605469 C 34.957031 197.4375 34.332031 195.25 33.761719 193.050781 C 33.195312 190.851562 32.683594 188.636719 32.230469 186.410156 C 31.777344 184.183594 31.378906 181.945312 31.042969 179.699219 C 30.707031 177.449219 30.425781 175.195312 30.207031 172.933594 C 29.988281 170.671875 29.828125 168.40625 29.726562 166.136719 C 29.625 163.863281 29.582031 161.59375 29.597656 159.320312 C 29.613281 157.046875 29.691406 154.777344 29.824219 152.507812 C 29.960938 150.238281 30.152344 147.976562 30.40625 145.71875 C 30.660156 143.460938 30.96875 141.207031 31.339844 138.964844 C 31.710938 136.722656 32.136719 134.492188 32.621094 132.273438 C 33.109375 130.050781 33.652344 127.847656 34.253906 125.65625 C 34.855469 123.460938 35.511719 121.289062 36.226562 119.128906 C 36.941406 116.972656 37.710938 114.835938 38.535156 112.71875 C 39.359375 110.601562 40.238281 108.503906 41.175781 106.433594 C 42.109375 104.363281 43.097656 102.316406 44.136719 100.296875 C 45.179688 98.273438 46.269531 96.28125 47.414062 94.320312 C 48.558594 92.355469 49.753906 90.425781 51 88.523438 C 52.246094 86.621094 53.539062 84.753906 54.882812 82.921875 C 56.226562 81.085938 57.613281 79.289062 59.050781 77.527344 C 59.613281 76.835938 60.109375 76.097656 60.535156 75.316406 C 60.964844 74.535156 61.316406 73.71875 61.59375 72.871094 C 61.871094 72.023438 62.070312 71.160156 62.1875 70.277344 C 62.308594 69.390625 62.34375 68.503906 62.296875 67.613281 C 62.253906 66.722656 62.125 65.84375 61.917969 64.976562 C 61.710938 64.109375 61.425781 63.269531 61.066406 62.453125 C 60.703125 61.640625 60.269531 60.863281 59.765625 60.128906 C 59.257812 59.394531 58.691406 58.710938 58.058594 58.082031 C 57.703125 57.722656 57.328125 57.386719 56.933594 57.066406 C 56.539062 56.746094 56.132812 56.449219 55.707031 56.175781 C 55.285156 55.898438 54.847656 55.644531 54.394531 55.414062 C 53.945312 55.183594 53.484375 54.976562 53.011719 54.796875 C 52.539062 54.613281 52.058594 54.457031 51.570312 54.324219 C 51.078125 54.191406 50.585938 54.085938 50.085938 54.007812 C 49.585938 53.925781 49.082031 53.871094 48.578125 53.84375 C 48.070312 53.816406 47.566406 53.816406 47.0625 53.839844 C 46.554688 53.867188 46.050781 53.917969 45.550781 53.996094 C 45.050781 54.074219 44.558594 54.175781 44.066406 54.304688 C 43.578125 54.433594 43.097656 54.589844 42.625 54.769531 C 42.148438 54.949219 41.6875 55.152344 41.234375 55.382812 C 40.785156 55.609375 40.34375 55.859375 39.917969 56.136719 C 39.492188 56.410156 39.082031 56.703125 38.6875 57.023438 C 38.292969 57.339844 37.917969 57.675781 37.558594 58.03125 C 37.199219 58.386719 36.859375 58.761719 36.539062 59.152344 C 14.042969 86.722656 0.535156 121.894531 0.535156 160.160156 C 0.535156 246.105469 68.660156 316.4375 153.746094 319.988281 C 247.09375 323.882812 324.140625 246.902344 320.332031 153.5625 C 318.035156 97.230469 286.46875 48.316406 240.46875 21.65625 Z M 240.46875 21.65625 " fill-opacity="1" fill-rule="nonzero"/></g><path fill="#8c5bea" d="M 260.332031 117.988281 C 259.46875 115.941406 258.546875 113.921875 257.558594 111.929688 C 256.574219 109.9375 255.527344 107.980469 254.421875 106.050781 C 253.316406 104.125 252.152344 102.234375 250.929688 100.378906 C 249.707031 98.523438 248.429688 96.707031 247.09375 94.929688 C 245.761719 93.152344 244.375 91.417969 242.933594 89.726562 C 241.496094 88.035156 240.003906 86.386719 238.464844 84.785156 C 236.921875 83.1875 235.335938 81.632812 233.699219 80.128906 C 232.0625 78.625 230.382812 77.175781 228.65625 75.773438 C 226.933594 74.375 225.167969 73.027344 223.359375 71.734375 C 221.550781 70.445312 219.707031 69.207031 217.824219 68.03125 C 215.941406 66.851562 214.023438 65.730469 212.070312 64.667969 C 210.117188 63.609375 208.136719 62.609375 206.121094 61.667969 C 204.109375 60.726562 202.070312 59.851562 200 59.035156 C 197.933594 58.222656 195.84375 57.472656 193.730469 56.785156 C 191.617188 56.097656 189.484375 55.476562 187.335938 54.921875 C 185.183594 54.367188 183.015625 53.875 180.835938 53.453125 C 178.65625 53.03125 176.460938 52.675781 174.257812 52.386719 C 172.054688 52.097656 169.847656 51.878906 167.628906 51.722656 C 165.414062 51.570312 163.195312 51.488281 160.972656 51.46875 C 158.75 51.453125 156.53125 51.503906 154.3125 51.625 C 152.09375 51.742188 149.878906 51.929688 147.671875 52.183594 C 145.464844 52.441406 143.269531 52.761719 141.082031 53.152344 C 138.894531 53.542969 136.722656 53.996094 134.5625 54.519531 C 132.402344 55.042969 130.261719 55.632812 128.136719 56.285156 C 126.015625 56.941406 123.914062 57.660156 121.832031 58.441406 C 119.753906 59.226562 117.699219 60.070312 115.671875 60.980469 C 113.644531 61.890625 111.648438 62.859375 109.679688 63.890625 C 107.710938 64.921875 105.777344 66.011719 103.878906 67.164062 C 101.976562 68.3125 100.113281 69.519531 98.285156 70.785156 C 96.457031 72.050781 94.671875 73.367188 92.925781 74.742188 C 91.179688 76.117188 89.476562 77.542969 87.820312 79.019531 C 86.160156 80.5 84.546875 82.027344 82.984375 83.605469 C 81.417969 85.183594 79.902344 86.804688 78.4375 88.476562 C 76.972656 90.144531 75.558594 91.859375 74.199219 93.617188 C 72.839844 95.371094 71.535156 97.167969 70.285156 99.007812 C 69.035156 100.84375 67.839844 102.714844 66.707031 104.625 C 65.570312 106.535156 64.496094 108.480469 63.476562 110.453125 C 62.460938 112.429688 61.507812 114.4375 60.613281 116.46875 C 59.722656 118.503906 58.890625 120.5625 58.125 122.648438 C 57.355469 124.734375 56.65625 126.839844 56.015625 128.96875 C 55.378906 131.097656 54.808594 133.242188 54.300781 135.40625 C 53.796875 137.570312 53.355469 139.746094 52.984375 141.9375 C 52.609375 144.128906 52.304688 146.328125 52.066406 148.539062 C 51.828125 150.746094 51.660156 152.960938 51.558594 155.179688 C 51.457031 157.398438 51.421875 159.621094 51.457031 161.839844 C 51.492188 164.0625 51.59375 166.28125 51.761719 168.496094 C 51.933594 170.710938 52.171875 172.921875 52.476562 175.121094 C 52.78125 177.320312 53.15625 179.511719 53.59375 181.6875 C 54.035156 183.867188 54.539062 186.027344 55.113281 188.175781 C 55.6875 190.324219 56.324219 192.449219 57.027344 194.558594 C 57.730469 196.664062 58.496094 198.75 59.328125 200.808594 C 60.15625 202.871094 61.050781 204.90625 62.003906 206.910156 C 62.960938 208.917969 63.976562 210.890625 65.054688 212.835938 C 66.128906 214.777344 67.265625 216.6875 68.457031 218.5625 C 69.652344 220.433594 70.902344 222.269531 72.207031 224.070312 C 73.515625 225.867188 74.875 227.621094 76.289062 229.335938 C 77.703125 231.050781 79.167969 232.71875 80.683594 234.34375 C 82.199219 235.96875 83.761719 237.542969 85.375 239.070312 C 86.988281 240.601562 88.644531 242.078125 90.347656 243.503906 C 92.054688 244.929688 93.796875 246.304688 95.585938 247.625 C 97.375 248.941406 99.199219 250.207031 101.066406 251.414062 C 102.929688 252.621094 104.828125 253.769531 106.765625 254.863281 C 108.699219 255.953125 110.667969 256.984375 112.667969 257.953125 C 114.664062 258.925781 116.691406 259.832031 118.746094 260.679688 C 120.800781 261.527344 122.878906 262.308594 124.980469 263.027344 C 127.082031 263.746094 129.207031 264.398438 131.347656 264.988281 C 133.492188 265.578125 135.648438 266.097656 137.824219 266.554688 C 140 267.011719 142.183594 267.402344 144.382812 267.722656 C 146.582031 268.046875 148.789062 268.300781 151 268.488281 C 153.214844 268.675781 155.433594 268.792969 157.652344 268.84375 C 159.875 268.894531 162.097656 268.878906 164.316406 268.792969 C 166.535156 268.707031 168.753906 268.554688 170.960938 268.332031 C 173.171875 268.113281 175.375 267.824219 177.570312 267.46875 C 179.761719 267.109375 181.941406 266.6875 184.109375 266.199219 C 186.277344 265.707031 188.425781 265.152344 190.558594 264.53125 C 192.691406 263.910156 194.804688 263.222656 196.894531 262.472656 C 198.988281 261.722656 201.054688 260.90625 203.09375 260.027344 C 205.136719 259.152344 207.148438 258.210938 209.128906 257.210938 C 211.113281 256.207031 213.066406 255.148438 214.984375 254.027344 C 216.902344 252.90625 218.785156 251.726562 220.628906 250.492188 C 222.476562 249.253906 224.28125 247.964844 226.050781 246.617188 C 227.816406 245.269531 229.539062 243.871094 231.222656 242.417969 C 232.902344 240.964844 234.539062 239.460938 236.125 237.90625 C 237.714844 236.355469 239.253906 234.753906 240.746094 233.109375 C 242.238281 231.460938 243.675781 229.769531 245.0625 228.03125 C 246.449219 226.296875 247.78125 224.519531 249.0625 222.703125 C 250.339844 220.886719 251.5625 219.03125 252.726562 217.140625 C 253.890625 215.246094 254.996094 213.320312 256.042969 211.359375 C 257.085938 209.398438 258.074219 207.410156 258.996094 205.390625 C 259.921875 203.371094 260.78125 201.324219 261.582031 199.25 C 262.378906 197.175781 263.113281 195.078125 263.785156 192.960938 C 264.457031 190.84375 265.058594 188.707031 265.597656 186.550781 C 266.140625 184.394531 266.613281 182.226562 267.019531 180.042969 C 267.421875 177.855469 267.761719 175.664062 268.035156 173.457031 C 268.304688 171.25 268.507812 169.039062 268.644531 166.824219 C 268.78125 164.605469 268.847656 162.386719 268.847656 160.164062 C 268.859375 152.917969 268.148438 145.746094 266.710938 138.648438 C 265.277344 131.546875 263.152344 124.660156 260.332031 117.988281 Z M 260.332031 117.988281 " fill-opacity="1" fill-rule="nonzero"/><path fill="#ffffff" d="M 128.421875 167.554688 C 127.628906 170.359375 126.464844 172.753906 124.933594 174.738281 C 123.402344 176.738281 121.503906 178.289062 119.238281 179.390625 C 116.972656 180.503906 114.351562 181.058594 111.371094 181.058594 C 108.304688 181.058594 105.699219 180.605469 103.558594 179.695312 C 101.417969 178.796875 99.453125 177.613281 97.65625 176.144531 L 102.484375 169.191406 C 103.996094 170.425781 105.445312 171.328125 106.835938 171.90625 C 108.230469 172.480469 109.820312 172.769531 111.609375 172.769531 C 114.191406 172.769531 116.167969 171.890625 117.539062 170.132812 C 118.910156 168.371094 119.753906 166.070312 120.074219 163.230469 C 118.984375 164.140625 117.773438 164.835938 116.4375 165.316406 C 115.046875 165.832031 113.4375 166.09375 111.609375 166.09375 C 109.335938 166.09375 107.289062 165.785156 105.464844 165.167969 C 103.71875 164.601562 102.148438 163.71875 100.753906 162.515625 C 99.421875 161.339844 98.417969 159.929688 97.746094 158.28125 C 97.050781 156.613281 96.703125 154.703125 96.703125 152.558594 C 96.683594 150.527344 97.070312 148.582031 97.863281 146.714844 C 98.625 144.9375 99.710938 143.386719 101.117188 142.0625 C 102.585938 140.699219 104.265625 139.675781 106.152344 138.996094 C 108.242188 138.234375 110.402344 137.867188 112.625 137.890625 C 113.894531 137.882812 115.15625 137.972656 116.414062 138.160156 C 117.484375 138.324219 118.527344 138.59375 119.542969 138.964844 C 120.496094 139.324219 121.390625 139.789062 122.226562 140.367188 C 123.105469 140.980469 123.917969 141.667969 124.671875 142.425781 C 125.445312 143.199219 126.121094 144.050781 126.699219 144.980469 C 127.34375 146.035156 127.859375 147.148438 128.25 148.320312 C 128.722656 149.738281 129.058594 151.191406 129.265625 152.671875 C 129.515625 154.511719 129.636719 156.359375 129.621094 158.21875 C 129.617188 161.640625 129.21875 164.753906 128.421875 167.554688 Z M 118.308594 147.550781 C 117.011719 146.359375 115.203125 145.761719 112.890625 145.761719 C 110.617188 145.761719 108.859375 146.351562 107.621094 147.523438 C 106.378906 148.695312 105.761719 150.238281 105.765625 152.144531 C 105.765625 154.054688 106.414062 155.585938 107.710938 156.746094 C 109.007812 157.902344 110.792969 158.480469 113.070312 158.472656 C 115.339844 158.472656 117.105469 157.886719 118.367188 156.714844 C 119.628906 155.539062 120.257812 154.039062 120.253906 152.210938 C 120.253906 150.296875 119.605469 148.746094 118.308594 147.550781 Z M 118.308594 147.550781 " fill-opacity="1" fill-rule="nonzero"/><path fill="#ffffff" d="M 171.800781 167.945312 C 170.96875 170.464844 169.703125 172.75 168.011719 174.800781 C 166.386719 176.757812 164.429688 178.289062 162.140625 179.402344 C 159.851562 180.511719 157.320312 181.070312 154.539062 181.070312 C 151.757812 181.070312 149.222656 180.523438 146.9375 179.429688 C 144.648438 178.34375 142.703125 176.824219 141.09375 174.867188 C 139.425781 172.824219 138.183594 170.550781 137.367188 168.039062 C 136.488281 165.277344 136.050781 162.441406 136.054688 159.542969 C 136.058594 156.640625 136.507812 153.808594 137.398438 151.046875 C 138.226562 148.515625 139.488281 146.21875 141.183594 144.160156 C 142.808594 142.207031 144.769531 140.671875 147.058594 139.5625 C 149.34375 138.449219 151.878906 137.894531 154.660156 137.890625 C 157.445312 137.890625 159.980469 138.4375 162.265625 139.53125 C 164.550781 140.621094 166.5 142.140625 168.105469 144.09375 C 169.777344 146.148438 171.023438 148.433594 171.835938 150.953125 C 172.730469 153.703125 173.167969 156.527344 173.148438 159.417969 C 173.171875 162.335938 172.722656 165.175781 171.800781 167.945312 Z M 163.066406 154.230469 C 162.679688 152.71875 162.0625 151.304688 161.214844 149.996094 C 160.464844 148.839844 159.5 147.90625 158.320312 147.195312 C 157.746094 146.863281 157.140625 146.613281 156.503906 146.441406 C 155.863281 146.269531 155.214844 146.183594 154.554688 146.179688 C 153.890625 146.175781 153.242188 146.257812 152.601562 146.425781 C 151.960938 146.59375 151.355469 146.839844 150.777344 147.164062 C 149.617188 147.859375 148.664062 148.773438 147.917969 149.90625 C 147.066406 151.199219 146.457031 152.601562 146.097656 154.109375 C 145.664062 155.851562 145.457031 157.621094 145.472656 159.414062 C 145.457031 161.214844 145.675781 162.980469 146.128906 164.722656 C 146.511719 166.234375 147.128906 167.644531 147.976562 168.957031 C 148.726562 170.109375 149.691406 171.046875 150.871094 171.757812 C 151.445312 172.085938 152.050781 172.339844 152.691406 172.511719 C 153.328125 172.683594 153.976562 172.769531 154.640625 172.773438 C 155.300781 172.773438 155.949219 172.691406 156.589844 172.527344 C 157.230469 172.359375 157.839844 172.113281 158.414062 171.789062 C 159.582031 171.085938 160.535156 170.160156 161.277344 169.015625 C 162.117188 167.71875 162.726562 166.316406 163.09375 164.8125 C 163.527344 163.078125 163.738281 161.320312 163.71875 159.53125 C 163.734375 157.734375 163.515625 155.96875 163.066406 154.230469 Z M 163.066406 154.230469 " fill-opacity="1" fill-rule="nonzero"/><path fill="#ffffff" d="M 198.570312 152.945312 C 198.09375 154.214844 197.398438 155.351562 196.484375 156.355469 C 195.570312 157.34375 194.5 158.109375 193.265625 158.648438 C 191.941406 159.222656 190.5625 159.5 189.121094 159.484375 C 188.097656 159.5 187.101562 159.359375 186.125 159.0625 C 185.148438 158.769531 184.238281 158.328125 183.398438 157.75 C 182.558594 157.167969 181.828125 156.472656 181.207031 155.664062 C 180.585938 154.855469 180.101562 153.972656 179.757812 153.011719 C 179.269531 151.671875 179.03125 150.289062 179.042969 148.867188 C 179.035156 147.429688 179.285156 146.035156 179.789062 144.691406 C 180.261719 143.414062 180.957031 142.269531 181.875 141.265625 C 182.789062 140.273438 183.863281 139.507812 185.09375 138.96875 C 186.417969 138.394531 187.800781 138.113281 189.242188 138.132812 C 190.261719 138.117188 191.257812 138.257812 192.234375 138.550781 C 193.210938 138.847656 194.121094 139.285156 194.960938 139.867188 C 195.800781 140.449219 196.53125 141.140625 197.152344 141.953125 C 197.773438 142.761719 198.257812 143.644531 198.601562 144.605469 C 199.089844 145.945312 199.328125 147.328125 199.316406 148.75 C 199.328125 150.195312 199.082031 151.59375 198.570312 152.945312 Z M 190.3125 180.347656 L 183.21875 180.347656 L 213.6875 138.609375 L 220.78125 138.609375 Z M 191.984375 145.136719 C 191.269531 144.085938 190.3125 143.558594 189.121094 143.558594 C 187.847656 143.558594 186.894531 144.074219 186.257812 145.105469 C 185.625 146.140625 185.304688 147.351562 185.304688 148.746094 C 185.304688 150.175781 185.664062 151.417969 186.378906 152.472656 C 187.09375 153.527344 188.046875 154.050781 189.242188 154.050781 C 190.511719 154.050781 191.464844 153.535156 192.101562 152.503906 C 192.738281 151.46875 193.054688 150.257812 193.054688 148.867188 C 193.054688 147.433594 192.699219 146.191406 191.984375 145.136719 Z M 224.214844 174.292969 C 223.738281 175.5625 223.042969 176.699219 222.128906 177.699219 C 221.214844 178.691406 220.144531 179.457031 218.910156 179.996094 C 217.585938 180.570312 216.203125 180.847656 214.761719 180.832031 C 213.742188 180.847656 212.746094 180.707031 211.769531 180.414062 C 210.792969 180.117188 209.882812 179.679688 209.042969 179.097656 C 208.203125 178.515625 207.472656 177.820312 206.851562 177.011719 C 206.230469 176.203125 205.746094 175.320312 205.402344 174.359375 C 204.914062 173.019531 204.675781 171.636719 204.6875 170.214844 C 204.679688 168.777344 204.925781 167.382812 205.433594 166.039062 C 205.90625 164.761719 206.601562 163.617188 207.519531 162.613281 C 208.433594 161.621094 209.507812 160.855469 210.738281 160.316406 C 212.0625 159.742188 213.445312 159.464844 214.882812 159.480469 C 215.90625 159.464844 216.902344 159.605469 217.878906 159.902344 C 218.855469 160.199219 219.765625 160.636719 220.605469 161.214844 C 221.445312 161.796875 222.175781 162.492188 222.796875 163.300781 C 223.417969 164.109375 223.902344 164.996094 224.246094 165.957031 C 224.734375 167.292969 224.972656 168.675781 224.960938 170.101562 C 224.972656 171.542969 224.722656 172.941406 224.214844 174.292969 Z M 217.621094 166.480469 C 216.90625 165.425781 215.953125 164.902344 214.761719 164.898438 C 213.488281 164.898438 212.53125 165.417969 211.898438 166.449219 C 211.261719 167.484375 210.945312 168.695312 210.945312 170.085938 C 210.945312 171.519531 211.300781 172.761719 212.015625 173.8125 C 212.734375 174.867188 213.6875 175.394531 214.878906 175.394531 C 216.152344 175.394531 217.105469 174.878906 217.742188 173.84375 C 218.378906 172.8125 218.695312 171.597656 218.695312 170.207031 C 218.695312 168.777344 218.335938 167.535156 217.621094 166.480469 Z M 217.621094 166.480469 " fill-opacity="1" fill-rule="nonzero"/><path fill="#ba9df2" d="M 301.6875 100.515625 C 299.765625 95.980469 297.625 91.542969 295.277344 87.210938 C 292.925781 82.878906 290.371094 78.667969 287.617188 74.582031 C 284.859375 70.496094 281.917969 66.550781 278.78125 62.746094 C 275.644531 58.941406 272.335938 55.296875 268.851562 51.8125 C 265.367188 48.328125 261.722656 45.019531 257.917969 41.882812 C 254.113281 38.75 250.167969 35.804688 246.082031 33.046875 C 241.996094 30.292969 237.785156 27.738281 233.453125 25.386719 C 229.121094 23.039062 224.683594 20.902344 220.148438 18.976562 C 201.253906 10.984375 181.1875 6.933594 160.5 6.933594 C 139.816406 6.933594 119.75 10.988281 100.855469 18.976562 C 96.316406 20.902344 91.882812 23.039062 87.550781 25.386719 C 83.214844 27.738281 79.007812 30.292969 74.921875 33.046875 C 70.832031 35.804688 66.886719 38.75 63.085938 41.882812 C 59.28125 45.019531 55.636719 48.328125 52.152344 51.8125 C 48.664062 55.296875 45.355469 58.941406 42.21875 62.746094 C 39.085938 66.550781 36.140625 70.496094 33.386719 74.582031 C 30.628906 78.667969 28.078125 82.878906 25.726562 87.210938 C 23.375 91.542969 21.238281 95.980469 19.3125 100.515625 C 11.324219 119.410156 7.269531 139.476562 7.269531 160.164062 C 7.269531 180.847656 11.324219 200.914062 19.3125 219.808594 C 21.238281 224.347656 23.375 228.78125 25.726562 233.117188 C 28.078125 237.449219 30.628906 241.65625 33.386719 245.746094 C 36.140625 249.832031 39.085938 253.777344 42.21875 257.582031 C 45.355469 261.382812 48.664062 265.027344 52.152344 268.515625 C 55.636719 272 59.28125 275.308594 63.085938 278.445312 C 66.886719 281.578125 70.832031 284.523438 74.921875 287.28125 C 79.007812 290.035156 83.214844 292.589844 87.550781 294.9375 C 91.882812 297.289062 96.316406 299.425781 100.855469 301.351562 C 119.75 309.34375 139.816406 313.394531 160.5 313.394531 C 181.1875 313.394531 201.253906 309.339844 220.148438 301.351562 C 224.683594 299.425781 229.121094 297.289062 233.453125 294.9375 C 237.785156 292.585938 241.996094 290.035156 246.082031 287.277344 C 250.167969 284.523438 254.113281 281.578125 257.917969 278.441406 C 261.722656 275.308594 265.367188 271.996094 268.851562 268.511719 C 272.335938 265.023438 275.648438 261.378906 278.78125 257.578125 C 281.917969 253.773438 284.863281 249.828125 287.617188 245.738281 C 290.371094 241.652344 292.925781 237.441406 295.277344 233.109375 C 297.625 228.777344 299.765625 224.339844 301.6875 219.804688 C 309.679688 200.910156 313.730469 180.839844 313.730469 160.15625 C 313.730469 139.472656 309.679688 119.410156 301.6875 100.515625 Z M 160.5 301.363281 C 82.648438 301.363281 19.300781 238.019531 19.300781 160.160156 C 19.300781 82.300781 82.648438 18.960938 160.5 18.960938 C 238.355469 18.960938 301.703125 82.300781 301.703125 160.160156 C 301.703125 238.019531 238.355469 301.363281 160.5 301.363281 Z M 160.5 301.363281 " fill-opacity="1" fill-rule="nonzero"/><g clip-path="url(#62a1190033)"><path fill="#8c5bea" d="M 240.46875 21.65625 C 230.652344 15.957031 220.34375 11.367188 209.539062 7.882812 C 198.738281 4.394531 187.691406 2.09375 176.394531 0.976562 C 167.878906 0.125 160.5 6.851562 160.5 15.410156 L 160.5 15.542969 C 160.503906 16.4375 160.585938 17.324219 160.75 18.203125 C 160.917969 19.082031 161.160156 19.9375 161.484375 20.769531 C 161.808594 21.605469 162.207031 22.402344 162.675781 23.160156 C 163.148438 23.921875 163.683594 24.632812 164.285156 25.292969 C 164.886719 25.957031 165.542969 26.554688 166.257812 27.097656 C 166.96875 27.636719 167.726562 28.105469 168.527344 28.507812 C 169.324219 28.90625 170.15625 29.230469 171.015625 29.476562 C 171.875 29.726562 172.75 29.890625 173.640625 29.976562 C 186.726562 31.269531 199.320312 34.484375 211.429688 39.613281 C 213.523438 40.496094 215.59375 41.433594 217.640625 42.425781 C 219.683594 43.414062 221.703125 44.460938 223.691406 45.554688 C 225.683594 46.652344 227.644531 47.796875 229.578125 48.996094 C 231.507812 50.195312 233.40625 51.441406 235.273438 52.738281 C 237.140625 54.035156 238.96875 55.378906 240.765625 56.773438 C 242.5625 58.164062 244.320312 59.601562 246.042969 61.085938 C 247.765625 62.570312 249.445312 64.097656 251.089844 65.671875 C 252.730469 67.242188 254.332031 68.855469 255.886719 70.507812 C 257.445312 72.164062 258.960938 73.859375 260.429688 75.59375 C 261.898438 77.324219 263.324219 79.097656 264.699219 80.902344 C 266.078125 82.710938 267.40625 84.554688 268.6875 86.429688 C 269.96875 88.308594 271.203125 90.214844 272.382812 92.15625 C 273.566406 94.097656 274.699219 96.070312 275.777344 98.070312 C 276.855469 100.070312 277.882812 102.097656 278.859375 104.148438 C 279.832031 106.203125 280.75 108.28125 281.617188 110.382812 C 282.484375 112.484375 283.292969 114.605469 284.050781 116.75 C 284.804688 118.890625 285.503906 121.054688 286.148438 123.234375 C 286.789062 125.414062 287.375 127.609375 287.902344 129.820312 C 288.433594 132.03125 288.902344 134.253906 289.316406 136.488281 C 289.730469 138.722656 290.082031 140.964844 290.378906 143.21875 C 290.675781 145.472656 290.914062 147.730469 291.089844 149.996094 C 291.269531 152.261719 291.386719 154.53125 291.449219 156.804688 C 291.507812 159.078125 291.511719 161.347656 291.453125 163.621094 C 291.394531 165.890625 291.277344 168.160156 291.101562 170.425781 C 290.925781 172.691406 290.6875 174.953125 290.394531 177.207031 C 290.101562 179.460938 289.75 181.703125 289.339844 183.941406 C 288.925781 186.175781 288.457031 188.398438 287.933594 190.609375 C 287.40625 192.820312 286.820312 195.015625 286.179688 197.195312 C 285.539062 199.375 284.84375 201.539062 284.089844 203.683594 C 283.335938 205.828125 282.527344 207.949219 281.664062 210.050781 C 280.800781 212.15625 279.882812 214.234375 278.910156 216.285156 C 277.9375 218.339844 276.914062 220.367188 275.835938 222.371094 C 274.757812 224.371094 273.628906 226.34375 272.449219 228.285156 C 271.265625 230.226562 270.039062 232.136719 268.757812 234.015625 C 267.476562 235.894531 266.148438 237.738281 264.773438 239.546875 C 263.398438 241.355469 261.976562 243.125 260.507812 244.863281 C 259.039062 246.597656 257.527344 248.292969 255.972656 249.949219 C 254.414062 251.605469 252.816406 253.21875 251.175781 254.792969 C 249.535156 256.363281 247.855469 257.894531 246.136719 259.378906 C 244.414062 260.863281 242.65625 262.304688 240.863281 263.699219 C 239.066406 265.09375 237.238281 266.4375 235.371094 267.738281 C 233.507812 269.035156 231.609375 270.285156 229.679688 271.484375 C 227.75 272.683594 225.789062 273.835938 223.800781 274.933594 C 221.808594 276.03125 219.792969 277.074219 217.746094 278.066406 C 215.703125 279.0625 213.632812 280 211.542969 280.886719 C 209.449219 281.769531 207.332031 282.601562 205.195312 283.375 C 203.058594 284.148438 200.90625 284.867188 198.730469 285.53125 C 196.558594 286.195312 194.367188 286.800781 192.160156 287.347656 C 189.957031 287.898438 187.738281 288.386719 185.507812 288.820312 C 183.277344 289.253906 181.035156 289.628906 178.785156 289.945312 C 176.535156 290.261719 174.277344 290.519531 172.011719 290.71875 C 169.75 290.917969 167.480469 291.058594 165.210938 291.140625 C 162.9375 291.222656 160.667969 291.242188 158.394531 291.207031 C 156.121094 291.167969 153.851562 291.070312 151.585938 290.917969 C 149.316406 290.761719 147.054688 290.546875 144.800781 290.273438 C 142.542969 290 140.296875 289.667969 138.058594 289.277344 C 135.816406 288.886719 133.589844 288.4375 131.375 287.933594 C 129.160156 287.425781 126.957031 286.863281 124.773438 286.242188 C 122.585938 285.621094 120.417969 284.945312 118.265625 284.210938 C 116.113281 283.476562 113.984375 282.6875 111.875 281.84375 C 109.765625 280.996094 107.679688 280.097656 105.617188 279.144531 C 103.550781 278.191406 101.515625 277.1875 99.503906 276.125 C 97.492188 275.066406 95.511719 273.957031 93.558594 272.792969 C 91.605469 271.632812 89.683594 270.417969 87.796875 269.15625 C 85.90625 267.894531 84.050781 266.582031 82.230469 265.222656 C 80.40625 263.863281 78.621094 262.457031 76.875 261.007812 C 75.125 259.554688 73.417969 258.058594 71.746094 256.515625 C 70.074219 254.976562 68.445312 253.390625 66.859375 251.765625 C 65.269531 250.140625 63.726562 248.472656 62.226562 246.765625 C 60.722656 245.058594 59.269531 243.316406 57.859375 241.535156 C 56.449219 239.75 55.085938 237.933594 53.769531 236.082031 C 52.453125 234.226562 51.1875 232.339844 49.96875 230.421875 C 48.75 228.503906 47.585938 226.554688 46.46875 224.574219 C 45.351562 222.59375 44.289062 220.585938 43.277344 218.550781 C 42.265625 216.515625 41.308594 214.457031 40.402344 212.371094 C 39.5 210.285156 38.652344 208.179688 37.855469 206.050781 C 37.0625 203.921875 36.324219 201.773438 35.640625 199.605469 C 34.957031 197.4375 34.332031 195.25 33.761719 193.050781 C 33.195312 190.851562 32.683594 188.636719 32.230469 186.410156 C 31.777344 184.183594 31.378906 181.945312 31.042969 179.699219 C 30.707031 177.449219 30.425781 175.195312 30.207031 172.933594 C 29.988281 170.671875 29.828125 168.40625 29.726562 166.136719 C 29.625 163.863281 29.582031 161.59375 29.597656 159.320312 C 29.613281 157.046875 29.691406 154.777344 29.824219 152.507812 C 29.960938 150.238281 30.152344 147.976562 30.40625 145.71875 C 30.660156 143.460938 30.96875 141.207031 31.339844 138.964844 C 31.710938 136.722656 32.136719 134.492188 32.621094 132.273438 C 33.109375 130.050781 33.652344 127.847656 34.253906 125.65625 C 34.855469 123.460938 35.511719 121.289062 36.226562 119.128906 C 36.941406 116.972656 37.710938 114.835938 38.535156 112.71875 C 39.359375 110.601562 40.238281 108.503906 41.175781 106.433594 C 42.109375 104.363281 43.097656 102.316406 44.136719 100.296875 C 45.179688 98.273438 46.269531 96.28125 47.414062 94.320312 C 48.558594 92.355469 49.753906 90.425781 51 88.523438 C 52.246094 86.621094 53.539062 84.753906 54.882812 82.921875 C 56.226562 81.085938 57.613281 79.289062 59.050781 77.527344 C 59.613281 76.835938 60.109375 76.097656 60.535156 75.316406 C 60.964844 74.535156 61.316406 73.71875 61.59375 72.871094 C 61.871094 72.023438 62.070312 71.160156 62.1875 70.277344 C 62.308594 69.390625 62.34375 68.503906 62.296875 67.613281 C 62.253906 66.722656 62.125 65.84375 61.917969 64.976562 C 61.710938 64.109375 61.425781 63.269531 61.066406 62.453125 C 60.703125 61.640625 60.269531 60.863281 59.765625 60.128906 C 59.257812 59.394531 58.691406 58.710938 58.058594 58.082031 C 57.703125 57.722656 57.328125 57.386719 56.933594 57.066406 C 56.539062 56.746094 56.132812 56.449219 55.707031 56.175781 C 55.285156 55.898438 54.847656 55.644531 54.394531 55.414062 C 53.945312 55.183594 53.484375 54.976562 53.011719 54.796875 C 52.539062 54.613281 52.058594 54.457031 51.570312 54.324219 C 51.078125 54.191406 50.585938 54.085938 50.085938 54.007812 C 49.585938 53.925781 49.082031 53.871094 48.578125 53.84375 C 48.070312 53.816406 47.566406 53.816406 47.0625 53.839844 C 46.554688 53.867188 46.050781 53.917969 45.550781 53.996094 C 45.050781 54.074219 44.558594 54.175781 44.066406 54.304688 C 43.578125 54.433594 43.097656 54.589844 42.625 54.769531 C 42.148438 54.949219 41.6875 55.152344 41.234375 55.382812 C 40.785156 55.609375 40.34375 55.859375 39.917969 56.136719 C 39.492188 56.410156 39.082031 56.703125 38.6875 57.023438 C 38.292969 57.339844 37.917969 57.675781 37.558594 58.03125 C 37.199219 58.386719 36.859375 58.761719 36.539062 59.152344 C 14.042969 86.722656 0.535156 121.894531 0.535156 160.160156 C 0.535156 246.105469 68.660156 316.4375 153.746094 319.988281 C 247.09375 323.882812 324.140625 246.902344 320.332031 153.5625 C 318.035156 97.230469 286.46875 48.316406 240.46875 21.65625 Z M 240.46875 21.65625 " fill-opacity="1" fill-rule="nonzero"/></g><path fill="#8c5bea" d="M 260.332031 117.988281 C 259.46875 115.941406 258.546875 113.921875 257.558594 111.929688 C 256.574219 109.9375 255.527344 107.980469 254.421875 106.050781 C 253.316406 104.125 252.152344 102.234375 250.929688 100.378906 C 249.707031 98.523438 248.429688 96.707031 247.09375 94.929688 C 245.761719 93.152344 244.375 91.417969 242.933594 89.726562 C 241.496094 88.035156 240.003906 86.386719 238.464844 84.785156 C 236.921875 83.1875 235.335938 81.632812 233.699219 80.128906 C 232.0625 78.625 230.382812 77.175781 228.65625 75.773438 C 226.933594 74.375 225.167969 73.027344 223.359375 71.734375 C 221.550781 70.445312 219.707031 69.207031 217.824219 68.03125 C 215.941406 66.851562 214.023438 65.730469 212.070312 64.667969 C 210.117188 63.609375 208.136719 62.609375 206.121094 61.667969 C 204.109375 60.726562 202.070312 59.851562 200 59.035156 C 197.933594 58.222656 195.84375 57.472656 193.730469 56.785156 C 191.617188 56.097656 189.484375 55.476562 187.335938 54.921875 C 185.183594 54.367188 183.015625 53.875 180.835938 53.453125 C 178.65625 53.03125 176.460938 52.675781 174.257812 52.386719 C 172.054688 52.097656 169.847656 51.878906 167.628906 51.722656 C 165.414062 51.570312 163.195312 51.488281 160.972656 51.46875 C 158.75 51.453125 156.53125 51.503906 154.3125 51.625 C 152.09375 51.742188 149.878906 51.929688 147.671875 52.183594 C 145.464844 52.441406 143.269531 52.761719 141.082031 53.152344 C 138.894531 53.542969 136.722656 53.996094 134.5625 54.519531 C 132.402344 55.042969 130.261719 55.632812 128.136719 56.285156 C 126.015625 56.941406 123.914062 57.660156 121.832031 58.441406 C 119.753906 59.226562 117.699219 60.070312 115.671875 60.980469 C 113.644531 61.890625 111.648438 62.859375 109.679688 63.890625 C 107.710938 64.921875 105.777344 66.011719 103.878906 67.164062 C 101.976562 68.3125 100.113281 69.519531 98.285156 70.785156 C 96.457031 72.050781 94.671875 73.367188 92.925781 74.742188 C 91.179688 76.117188 89.476562 77.542969 87.820312 79.019531 C 86.160156 80.5 84.546875 82.027344 82.984375 83.605469 C 81.417969 85.183594 79.902344 86.804688 78.4375 88.476562 C 76.972656 90.144531 75.558594 91.859375 74.199219 93.617188 C 72.839844 95.371094 71.535156 97.167969 70.285156 99.007812 C 69.035156 100.84375 67.839844 102.714844 66.707031 104.625 C 65.570312 106.535156 64.496094 108.480469 63.476562 110.453125 C 62.460938 112.429688 61.507812 114.4375 60.613281 116.46875 C 59.722656 118.503906 58.890625 120.5625 58.125 122.648438 C 57.355469 124.734375 56.65625 126.839844 56.015625 128.96875 C 55.378906 131.097656 54.808594 133.242188 54.300781 135.40625 C 53.796875 137.570312 53.355469 139.746094 52.984375 141.9375 C 52.609375 144.128906 52.304688 146.328125 52.066406 148.539062 C 51.828125 150.746094 51.660156 152.960938 51.558594 155.179688 C 51.457031 157.398438 51.421875 159.621094 51.457031 161.839844 C 51.492188 164.0625 51.59375 166.28125 51.761719 168.496094 C 51.933594 170.710938 52.171875 172.921875 52.476562 175.121094 C 52.78125 177.320312 53.15625 179.511719 53.59375 181.6875 C 54.035156 183.867188 54.539062 186.027344 55.113281 188.175781 C 55.6875 190.324219 56.324219 192.449219 57.027344 194.558594 C 57.730469 196.664062 58.496094 198.75 59.328125 200.808594 C 60.15625 202.871094 61.050781 204.90625 62.003906 206.910156 C 62.960938 208.917969 63.976562 210.890625 65.054688 212.835938 C 66.128906 214.777344 67.265625 216.6875 68.457031 218.5625 C 69.652344 220.433594 70.902344 222.269531 72.207031 224.070312 C 73.515625 225.867188 74.875 227.621094 76.289062 229.335938 C 77.703125 231.050781 79.167969 232.71875 80.683594 234.34375 C 82.199219 235.96875 83.761719 237.542969 85.375 239.070312 C 86.988281 240.601562 88.644531 242.078125 90.347656 243.503906 C 92.054688 244.929688 93.796875 246.304688 95.585938 247.625 C 97.375 248.941406 99.199219 250.207031 101.066406 251.414062 C 102.929688 252.621094 104.828125 253.769531 106.765625 254.863281 C 108.699219 255.953125 110.667969 256.984375 112.667969 257.953125 C 114.664062 258.925781 116.691406 259.832031 118.746094 260.679688 C 120.800781 261.527344 122.878906 262.308594 124.980469 263.027344 C 127.082031 263.746094 129.207031 264.398438 131.347656 264.988281 C 133.492188 265.578125 135.648438 266.097656 137.824219 266.554688 C 140 267.011719 142.183594 267.402344 144.382812 267.722656 C 146.582031 268.046875 148.789062 268.300781 151 268.488281 C 153.214844 268.675781 155.433594 268.792969 157.652344 268.84375 C 159.875 268.894531 162.097656 268.878906 164.316406 268.792969 C 166.535156 268.707031 168.753906 268.554688 170.960938 268.332031 C 173.171875 268.113281 175.375 267.824219 177.570312 267.46875 C 179.761719 267.109375 181.941406 266.6875 184.109375 266.199219 C 186.277344 265.707031 188.425781 265.152344 190.558594 264.53125 C 192.691406 263.910156 194.804688 263.222656 196.894531 262.472656 C 198.988281 261.722656 201.054688 260.90625 203.09375 260.027344 C 205.136719 259.152344 207.148438 258.210938 209.128906 257.210938 C 211.113281 256.207031 213.066406 255.148438 214.984375 254.027344 C 216.902344 252.90625 218.785156 251.726562 220.628906 250.492188 C 222.476562 249.253906 224.28125 247.964844 226.050781 246.617188 C 227.816406 245.269531 229.539062 243.871094 231.222656 242.417969 C 232.902344 240.964844 234.539062 239.460938 236.125 237.90625 C 237.714844 236.355469 239.253906 234.753906 240.746094 233.109375 C 242.238281 231.460938 243.675781 229.769531 245.0625 228.03125 C 246.449219 226.296875 247.78125 224.519531 249.0625 222.703125 C 250.339844 220.886719 251.5625 219.03125 252.726562 217.140625 C 253.890625 215.246094 254.996094 213.320312 256.042969 211.359375 C 257.085938 209.398438 258.074219 207.410156 258.996094 205.390625 C 259.921875 203.371094 260.78125 201.324219 261.582031 199.25 C 262.378906 197.175781 263.113281 195.078125 263.785156 192.960938 C 264.457031 190.84375 265.058594 188.707031 265.597656 186.550781 C 266.140625 184.394531 266.613281 182.226562 267.019531 180.042969 C 267.421875 177.855469 267.761719 175.664062 268.035156 173.457031 C 268.304688 171.25 268.507812 169.039062 268.644531 166.824219 C 268.78125 164.605469 268.847656 162.386719 268.847656 160.164062 C 268.859375 152.917969 268.148438 145.746094 266.710938 138.648438 C 265.277344 131.546875 263.152344 124.660156 260.332031 117.988281 Z M 260.332031 117.988281 " fill-opacity="1" fill-rule="nonzero"/><path fill="#ffffff" d="M 128.421875 167.554688 C 127.628906 170.359375 126.464844 172.753906 124.933594 174.738281 C 123.402344 176.738281 121.503906 178.289062 119.238281 179.390625 C 116.972656 180.503906 114.351562 181.058594 111.371094 181.058594 C 108.304688 181.058594 105.699219 180.605469 103.558594 179.695312 C 101.417969 178.796875 99.453125 177.613281 97.65625 176.144531 L 102.484375 169.191406 C 103.996094 170.425781 105.445312 171.328125 106.835938 171.90625 C 108.230469 172.480469 109.820312 172.769531 111.609375 172.769531 C 114.191406 172.769531 116.167969 171.890625 117.539062 170.132812 C 118.910156 168.371094 119.753906 166.070312 120.074219 163.230469 C 118.984375 164.140625 117.773438 164.835938 116.4375 165.316406 C 115.046875 165.832031 113.4375 166.09375 111.609375 166.09375 C 109.335938 166.09375 107.289062 165.785156 105.464844 165.167969 C 103.71875 164.601562 102.148438 163.71875 100.753906 162.515625 C 99.421875 161.339844 98.417969 159.929688 97.746094 158.28125 C 97.050781 156.613281 96.703125 154.703125 96.703125 152.558594 C 96.683594 150.527344 97.070312 148.582031 97.863281 146.714844 C 98.625 144.9375 99.710938 143.386719 101.117188 142.0625 C 102.585938 140.699219 104.265625 139.675781 106.152344 138.996094 C 108.242188 138.234375 110.402344 137.867188 112.625 137.890625 C 113.894531 137.882812 115.15625 137.972656 116.414062 138.160156 C 117.484375 138.324219 118.527344 138.59375 119.542969 138.964844 C 120.496094 139.324219 121.390625 139.789062 122.226562 140.367188 C 123.105469 140.980469 123.917969 141.667969 124.671875 142.425781 C 125.445312 143.199219 126.121094 144.050781 126.699219 144.980469 C 127.34375 146.035156 127.859375 147.148438 128.25 148.320312 C 128.722656 149.738281 129.058594 151.191406 129.265625 152.671875 C 129.515625 154.511719 129.636719 156.359375 129.621094 158.21875 C 129.617188 161.640625 129.21875 164.753906 128.421875 167.554688 Z M 118.308594 147.550781 C 117.011719 146.359375 115.203125 145.761719 112.890625 145.761719 C 110.617188 145.761719 108.859375 146.351562 107.621094 147.523438 C 106.378906 148.695312 105.761719 150.238281 105.765625 152.144531 C 105.765625 154.054688 106.414062 155.585938 107.710938 156.746094 C 109.007812 157.902344 110.792969 158.480469 113.070312 158.472656 C 115.339844 158.472656 117.105469 157.886719 118.367188 156.714844 C 119.628906 155.539062 120.257812 154.039062 120.253906 152.210938 C 120.253906 150.296875 119.605469 148.746094 118.308594 147.550781 Z M 118.308594 147.550781 " fill-opacity="1" fill-rule="nonzero"/><path fill="#ffffff" d="M 171.800781 167.945312 C 170.96875 170.464844 169.703125 172.75 168.011719 174.800781 C 166.386719 176.757812 164.429688 178.289062 162.140625 179.402344 C 159.851562 180.511719 157.320312 181.070312 154.539062 181.070312 C 151.757812 181.070312 149.222656 180.523438 146.9375 179.429688 C 144.648438 178.34375 142.703125 176.824219 141.09375 174.867188 C 139.425781 172.824219 138.183594 170.550781 137.367188 168.039062 C 136.488281 165.277344 136.050781 162.441406 136.054688 159.542969 C 136.058594 156.640625 136.507812 153.808594 137.398438 151.046875 C 138.226562 148.515625 139.488281 146.21875 141.183594 144.160156 C 142.808594 142.207031 144.769531 140.671875 147.058594 139.5625 C 149.34375 138.449219 151.878906 137.894531 154.660156 137.890625 C 157.445312 137.890625 159.980469 138.4375 162.265625 139.53125 C 164.550781 140.621094 166.5 142.140625 168.105469 144.09375 C 169.777344 146.148438 171.023438 148.433594 171.835938 150.953125 C 172.730469 153.703125 173.167969 156.527344 173.148438 159.417969 C 173.171875 162.335938 172.722656 165.175781 171.800781 167.945312 Z M 163.066406 154.230469 C 162.679688 152.71875 162.0625 151.304688 161.214844 149.996094 C 160.464844 148.839844 159.5 147.90625 158.320312 147.195312 C 157.746094 146.863281 157.140625 146.613281 156.503906 146.441406 C 155.863281 146.269531 155.214844 146.183594 154.554688 146.179688 C 153.890625 146.175781 153.242188 146.257812 152.601562 146.425781 C 151.960938 146.59375 151.355469 146.839844 150.777344 147.164062 C 149.617188 147.859375 148.664062 148.773438 147.917969 149.90625 C 147.066406 151.199219 146.457031 152.601562 146.097656 154.109375 C 145.664062 155.851562 145.457031 157.621094 145.472656 159.414062 C 145.457031 161.214844 145.675781 162.980469 146.128906 164.722656 C 146.511719 166.234375 147.128906 167.644531 147.976562 168.957031 C 148.726562 170.109375 149.691406 171.046875 150.871094 171.757812 C 151.445312 172.085938 152.050781 172.339844 152.691406 172.511719 C 153.328125 172.683594 153.976562 172.769531 154.640625 172.773438 C 155.300781 172.773438 155.949219 172.691406 156.589844 172.527344 C 157.230469 172.359375 157.839844 172.113281 158.414062 171.789062 C 159.582031 171.085938 160.535156 170.160156 161.277344 169.015625 C 162.117188 167.71875 162.726562 166.316406 163.09375 164.8125 C 163.527344 163.078125 163.738281 161.320312 163.71875 159.53125 C 163.734375 157.734375 163.515625 155.96875 163.066406 154.230469 Z M 163.066406 154.230469 " fill-opacity="1" fill-rule="nonzero"/><path fill="#ffffff" d="M 198.570312 152.945312 C 198.09375 154.214844 197.398438 155.351562 196.484375 156.355469 C 195.570312 157.34375 194.5 158.109375 193.265625 158.648438 C 191.941406 159.222656 190.5625 159.5 189.121094 159.484375 C 188.097656 159.5 187.101562 159.359375 186.125 159.0625 C 185.148438 158.769531 184.238281 158.328125 183.398438 157.75 C 182.558594 157.167969 181.828125 156.472656 181.207031 155.664062 C 180.585938 154.855469 180.101562 153.972656 179.757812 153.011719 C 179.269531 151.671875 179.03125 150.289062 179.042969 148.867188 C 179.035156 147.429688 179.285156 146.035156 179.789062 144.691406 C 180.261719 143.414062 180.957031 142.269531 181.875 141.265625 C 182.789062 140.273438 183.863281 139.507812 185.09375 138.96875 C 186.417969 138.394531 187.800781 138.113281 189.242188 138.132812 C 190.261719 138.117188 191.257812 138.257812 192.234375 138.550781 C 193.210938 138.847656 194.121094 139.285156 194.960938 139.867188 C 195.800781 140.449219 196.53125 141.140625 197.152344 141.953125 C 197.773438 142.761719 198.257812 143.644531 198.601562 144.605469 C 199.089844 145.945312 199.328125 147.328125 199.316406 148.75 C 199.328125 150.195312 199.082031 151.59375 198.570312 152.945312 Z M 190.3125 180.347656 L 183.21875 180.347656 L 213.6875 138.609375 L 220.78125 138.609375 Z M 191.984375 145.136719 C 191.269531 144.085938 190.3125 143.558594 189.121094 143.558594 C 187.847656 143.558594 186.894531 144.074219 186.257812 145.105469 C 185.625 146.140625 185.304688 147.351562 185.304688 148.746094 C 185.304688 150.175781 185.664062 151.417969 186.378906 152.472656 C 187.09375 153.527344 188.046875 154.050781 189.242188 154.050781 C 190.511719 154.050781 191.464844 153.535156 192.101562 152.503906 C 192.738281 151.46875 193.054688 150.257812 193.054688 148.867188 C 193.054688 147.433594 192.699219 146.191406 191.984375 145.136719 Z M 224.214844 174.292969 C 223.738281 175.5625 223.042969 176.699219 222.128906 177.699219 C 221.214844 178.691406 220.144531 179.457031 218.910156 179.996094 C 217.585938 180.570312 216.203125 180.847656 214.761719 180.832031 C 213.742188 180.847656 212.746094 180.707031 211.769531 180.414062 C 210.792969 180.117188 209.882812 179.679688 209.042969 179.097656 C 208.203125 178.515625 207.472656 177.820312 206.851562 177.011719 C 206.230469 176.203125 205.746094 175.320312 205.402344 174.359375 C 204.914062 173.019531 204.675781 171.636719 204.6875 170.214844 C 204.679688 168.777344 204.925781 167.382812 205.433594 166.039062 C 205.90625 164.761719 206.601562 163.617188 207.519531 162.613281 C 208.433594 161.621094 209.507812 160.855469 210.738281 160.316406 C 212.0625 159.742188 213.445312 159.464844 214.882812 159.480469 C 215.90625 159.464844 216.902344 159.605469 217.878906 159.902344 C 218.855469 160.199219 219.765625 160.636719 220.605469 161.214844 C 221.445312 161.796875 222.175781 162.492188 222.796875 163.300781 C 223.417969 164.109375 223.902344 164.996094 224.246094 165.957031 C 224.734375 167.292969 224.972656 168.675781 224.960938 170.101562 C 224.972656 171.542969 224.722656 172.941406 224.214844 174.292969 Z M 217.621094 166.480469 C 216.90625 165.425781 215.953125 164.902344 214.761719 164.898438 C 213.488281 164.898438 212.53125 165.417969 211.898438 166.449219 C 211.261719 167.484375 210.945312 168.695312 210.945312 170.085938 C 210.945312 171.519531 211.300781 172.761719 212.015625 173.8125 C 212.734375 174.867188 213.6875 175.394531 214.878906 175.394531 C 216.152344 175.394531 217.105469 174.878906 217.742188 173.84375 C 218.378906 172.8125 218.695312 171.597656 218.695312 170.207031 C 218.695312 168.777344 218.335938 167.535156 217.621094 166.480469 Z M 217.621094 166.480469 " fill-opacity="1" fill-rule="nonzero"/></svg>