<?xml version="1.0" encoding="iso-8859-1"?>
<!-- Uploaded to: SVG Repo, www.svgrepo.com, Generator: SVG Repo Mixer Tools -->
<svg height="800px" width="800px" version="1.1" id="Layer_1" xmlns="http://www.w3.org/2000/svg" xmlns:xlink="http://www.w3.org/1999/xlink" 
	 viewBox="0 0 511.999 511.999" xml:space="preserve">
<path style="fill:#CCD1D9;" d="M437.434,124.943c51.951,30.562,72.279,92.381,45.404,138.075
	c-26.889,45.688-90.795,57.968-142.746,27.406S236.469,179.598,263.36,133.903C290.234,88.209,385.498,94.389,437.434,124.943z"/>
<g style="opacity:0.2;">
	<path style="fill:#FFFFFF;" d="M437.434,124.943c-28.203-16.593-69.17-25.992-105.045-23.804
		c29.969,1.727,60.982,10.438,83.717,23.804c51.953,30.562,72.279,92.381,45.391,138.075
		c-15.094,25.672-41.891,40.797-71.672,43.688c37.922,3.609,74.359-12,93.014-43.688
		C509.713,217.324,489.385,155.505,437.434,124.943z"/>
</g>
<path style="fill:#FFA77B;" d="M367.311,209.449c-26.109,54.327-85.998,79.756-133.794,56.795
	c-47.78-22.96-65.358-85.607-39.265-139.934C220.36,71.983,296.016,13.766,343.795,36.718
	C391.574,59.679,393.402,155.122,367.311,209.449z"/>
<g style="opacity:0.2;">
	<path style="fill:#FFFFFF;" d="M343.795,36.718c-10.516-5.055-22.391-6.164-34.781-4.258c4.672,0.812,9.172,2.203,13.453,4.258
		c47.781,22.96,49.609,118.404,23.516,172.73c-17.75,36.937-51.123,60.514-85.701,64.6c41.529,5.031,85.623-20.069,107.029-64.6
		C393.402,155.122,391.574,59.679,343.795,36.718z"/>
</g>
<path style="fill:#E6E9ED;" d="M206.892,249.604c-25.421,54.647-84.998,80.818-133.06,58.444
	c-48.077-22.359-66.42-84.788-40.999-139.435S133.19,54.819,181.252,77.186C229.313,99.553,232.329,194.957,206.892,249.604z"/>
<g style="opacity:0.3;">
	<path style="fill:#FFFFFF;" d="M181.252,77.186c-10.359-4.82-21.953-5.843-34.031-3.961c4.391,0.781,8.641,2.07,12.703,3.961
		c48.061,22.367,51.077,117.771,25.64,172.418c-17.468,37.554-51.061,61.647-85.967,65.803
		c41.905,5.094,86.279-20.624,107.294-65.803C232.329,194.957,229.313,99.553,181.252,77.186z"/>
</g>
<path style="fill:#FC6E51;" d="M368.217,459.092c148.824-64.967,143.762-255.971,143.762-255.971
	c0-11.781-9.547-21.336-21.328-21.336H21.365c-11.781,0-21.344,9.555-21.344,21.336c0,0-5.062,191.004,143.778,255.971H368.217z"/>
<g style="opacity:0.1;">
	<path d="M21.365,203.121c0-11.781,9.546-21.336,21.328-21.336H21.365c-11.781,0-21.344,9.555-21.344,21.336
		c0,0-5.062,191.004,143.778,255.971h21.328C16.287,394.125,21.365,203.121,21.365,203.121z"/>
</g>
<path style="fill:#FFA77B;" d="M511.51,371.297c0,60.265-42.982,109.123-95.998,109.123c-53.014,0-95.982-48.858-95.982-109.123
	c0-60.279,42.969-145.513,95.982-145.513C468.527,225.784,511.51,311.018,511.51,371.297z"/>
<g style="opacity:0.2;">
	<path style="fill:#FFFFFF;" d="M415.512,225.784c-3.609,0-7.156,0.406-10.656,1.164c47.984,10.328,85.326,88.178,85.326,144.349
		s-37.342,102.42-85.326,108.451c3.5,0.438,7.047,0.672,10.656,0.672c53.016,0,95.998-48.858,95.998-109.123
		C511.51,311.018,468.527,225.784,415.512,225.784z"/>
</g>
</svg>