<?xml version="1.0" encoding="utf-8"?>
<!-- Uploaded to: SVG Repo, www.svgrepo.com, Generator: SVG Repo Mixer Tools -->
<svg width="800px" height="800px" viewBox="0 0 1024 1024" class="icon"  version="1.1" xmlns="http://www.w3.org/2000/svg"><path d="M746.666667 938.666667a21.333333 21.333333 0 0 1-21.333334 21.333333H298.666667a21.333333 21.333333 0 0 1-21.333334-21.333333V533.333333c0-106.666667 128-170.666667 128-170.666666h213.333334s128 64 128 170.666666v405.333334z" fill="#2196F3" /><path d="M405.333333 277.333333h213.333334v85.333334H405.333333z" fill="#1565C0" /><path d="M384 213.333333h256v85.333334H384z" fill="#37474F" /><path d="M576 64h-128s0 85.333333-64 149.333333h128a42.666667 42.666667 0 1 1 0.021333-85.354666A42.666667 42.666667 0 0 1 512 213.333333h128c-64-64-64-149.333333-64-149.333333z" fill="#263238" /><path d="M661.333333 754.261333c-6.549333 3.648-35.221333 16.853333-41.237333 19.114667-9.6 3.626667-19.456 7.210667-29.013333 10.602667-13.952 4.949333-27.456 5.354667-43.669334 5.354666-22.826667 0-43.925333-4.885333-63.253333-10.218666-6.442667-1.749333-12.906667-3.712-19.456-5.674667-20.352-6.101333-41.386667-12.416-63.466667-14.4-11.370667-0.96-24 0.341333-38.592 3.456v44.629333l6.464-2.602666c11.498667-2.709333 20.778667-3.733333 28.288-2.986667 17.792 1.578667 35.882667 7.018667 55.04 12.778667 6.826667 2.048 13.674667 4.074667 20.416 5.952 22.272 6.101333 46.698667 11.733333 74.56 11.733333 18.944 0 37.632-0.597333 57.984-7.808 9.813333-3.52 19.946667-7.189333 29.738667-10.88a577.28 577.28 0 0 0 26.218667-11.584v-47.466667zM620.096 688.042667c-9.6 3.626667-19.456 7.210667-29.013333 10.602666-13.952 4.949333-27.456 5.354667-43.669334 5.354667-22.826667 0-43.925333-4.885333-63.253333-10.218667-6.442667-1.749333-12.906667-3.712-19.456-5.674666-20.352-6.101333-41.386667-12.416-63.466667-14.4-11.370667-0.96-24 0.362667-38.592 3.477333v44.608l6.464-2.602667c11.498667-2.709333 20.778667-3.754667 28.288-2.986666 17.792 1.578667 35.882667 7.018667 55.04 12.778666 6.826667 2.048 13.674667 4.074667 20.416 5.952 22.272 6.101333 46.698667 11.733333 74.56 11.733334 18.944 0 37.632-0.597333 57.984-7.808 9.813333-3.52 19.946667-7.189333 29.738667-10.88a577.28 577.28 0 0 0 26.218667-11.584v-47.466667c-6.570667 3.648-35.242667 16.853333-41.258667 19.114667zM620.096 602.709333c-9.6 3.626667-19.456 7.210667-29.013333 10.602667-13.952 4.949333-27.456 5.354667-43.669334 5.354667-22.826667 0-43.925333-4.885333-63.253333-10.218667-6.442667-1.749333-12.906667-3.712-19.456-5.674667-20.352-6.101333-41.386667-12.416-63.466667-14.4-11.370667-0.96-24 0.341333-38.592 3.456v44.629334l6.464-2.602667c11.498667-2.709333 20.778667-3.754667 28.288-2.986667 17.792 1.578667 35.882667 7.018667 55.04 12.778667 6.826667 2.048 13.674667 4.074667 20.416 5.952 22.272 6.101333 46.698667 11.733333 74.56 11.733333 18.944 0 37.632-0.597333 57.984-7.808 9.813333-3.52 19.946667-7.189333 29.738667-10.88a577.28 577.28 0 0 0 26.218667-11.584v-47.466666c-6.570667 3.648-35.242667 16.853333-41.258667 19.114666z" fill="#90CAF9" /></svg>